<svg width="256" height="256" viewBox="0 0 256 256" xmlns="http://www.w3.org/2000/svg">
  <defs>
    <filter id="orange-glow" x="-20%" y="-20%" width="140%" height="140%">
      <feGaussianBlur stdDeviation="3" result="blur" />
      <feComposite in="SourceGraphic" in2="blur" operator="over" />
    </filter>
    <pattern id="football-net" width="80" height="80" patternUnits="userSpaceOnUse">
      <path d="M40 0 L80 20 L80 60 L40 80 L0 60 L0 20 Z" stroke="#d97725" stroke-width="1.5" fill="none" filter="url(#orange-glow)"/>
      <path d="M40 80 L40 120 M0 20 L-40 0 M80 20 L120 0" stroke="#d97725" stroke-width="1.5" fill="none" filter="url(#orange-glow)"/>
    </pattern>
  </defs>
  <rect width="256" height="256" rx="56" fill="#111c2f" />
  <rect width="256" height="256" rx="56" fill="url(#football-net)" opacity="0.8" />
  <path d="M 50 100 Q 75 115, 100 100 Q 125 115, 170 100" stroke="#dfa239" stroke-width="10" fill="none" stroke-linecap="round"/>
  <path d="M 55 120 Q 80 130, 95 120" stroke="#dfa239" stroke-width="10" fill="none" stroke-linecap="round"/>
  <path d="M 145 100 L 135 120 L 150 125" stroke="#dfa239" stroke-width="8" fill="none" stroke-linecap="round" stroke-linejoin="round"/>
  <rect x="45" y="140" width="166" height="6" fill="#ffffff" />
  <rect x="85" y="130" width="12" height="10" fill="#ffffff" />
  <text x="128" y="190" font-family="'Arial Narrow', sans-serif" font-size="44" font-weight="bold" fill="#ffffff" text-anchor="middle" letter-spacing="1">DULÀ HQ</text>
  <circle cx="128" cy="210" r="4.5" fill="#ffffff"/>
</svg>
